<?xml version="1.0" encoding="UTF-8"?>
<svg xmlns="http://www.w3.org/2000/svg" version="1.1" viewBox="0 0 16 16">
  <defs>
    <style>
      .cls-1 {
        fill: #1f1f1e;
        fill-rule: evenodd;
      }
    </style>
  </defs>
  <!-- Generator: Adobe Illustrator 28.7.1, SVG Export Plug-In . SVG Version: 1.2.0 Build 142)  -->
  <g>
    <g id="Layer_1">
      <path class="cls-1" d="M5.8,6v-.9c0,0,.2,0,.3,0,2.4,0,4,2.1,4,2.1,0,0-1.7,2.4-3.5,2.4s-.5,0-.7-.1v-2.7c.9.1,1.1.5,1.7,1.5l1.2-1.1s-.9-1.2-2.4-1.2-.3,0-.5,0h0ZM5.8,3.2v1.3c0,0,.2,0,.3,0,3.3-.1,5.5,2.7,5.5,2.7,0,0-2.5,3-5.1,3s-.5,0-.7,0v.8c.2,0,.4,0,.6,0,2.4,0,4.2-1.2,5.9-2.7.3.2,1.4.8,1.7,1-1.6,1.3-5.4,2.4-7.5,2.4s-.4,0-.6,0v1.1h9.2V3.2H5.8ZM5.8,9.5v.7c-2.2-.4-2.9-2.7-2.9-2.7,0,0,1.1-1.2,2.9-1.4v.8s0,0,0,0c-.9-.1-1.7.8-1.7.8,0,0,.4,1.5,1.7,1.9h0ZM1.9,7.3s1.3-2,4-2.2v-.7C2.9,4.7.4,7.2.4,7.2c0,0,1.4,4.2,5.5,4.5v-.8c-3-.4-4-3.6-4-3.6h0Z"/>
    </g>
  </g>
</svg>